<?xml version="1.0" encoding="UTF-8" standalone="no"?>
<!DOCTYPE svg PUBLIC "-//W3C//DTD SVG 1.1//EN" "http://www.w3.org/Graphics/SVG/1.1/DTD/svg11.dtd">
<!-- Created with Vectornator (http://vectornator.io/) -->
<svg height="100%" stroke-miterlimit="10" style="fill-rule:nonzero;clip-rule:evenodd;stroke-linecap:round;stroke-linejoin:round;" version="1.1" viewBox="0 0 1024 1024" width="100%" xml:space="preserve" xmlns="http://www.w3.org/2000/svg" xmlns:vectornator="http://vectornator.io" xmlns:xlink="http://www.w3.org/1999/xlink">
<defs>
<filter color-interpolation-filters="sRGB" filterUnits="userSpaceOnUse" height="569.379" id="Filter" width="553.664" x="213.168" y="205.311">
<feComponentTransfer in="SourceGraphic" result="Alpha">
<feFuncA slope="0.980479" type="linear"/>
</feComponentTransfer>
<feDropShadow dx="-3.67321e-05" dy="10" flood-color="#000000" flood-opacity="0.333" in="Alpha" result="Shadow" stdDeviation="5"/>
</filter>
<filter color-interpolation-filters="sRGB" filterUnits="userSpaceOnUse" height="525" id="Filter_2" width="525" x="227.5" y="237.5">
<feDropShadow dx="-3.67321e-05" dy="10" flood-color="#000000" flood-opacity="0.333" in="SourceGraphic" result="Shadow" stdDeviation="5"/>
</filter>
</defs>
<g id="Calque-2" vectornator:layerName="Calque 2">
<path d="M257.857 240L257.857 720L490 260L722.143 260L722.143 500L472.143 500L722.143 500L722.143 720L316.791 720" fill="none" filter="url(#Filter)" stroke="#6a6a6a" stroke-linecap="butt" stroke-linejoin="round" stroke-opacity="0.444863" stroke-width="64.3788" vectornator:layerName="Courbe 5" vectornator:shadowAngle="1.5708" vectornator:shadowColor="#000000" vectornator:shadowOffset="10" vectornator:shadowOpacity="0.333" vectornator:shadowRadius="10"/>
<path d="M482.077 241.953C479.143 243.255 476.502 245.371 474.155 248.301C471.808 251.23 439.384 314.382 376.884 437.754C345.634 499.44 314.384 561.126 283.134 622.812C282.987 561.94 282.84 501.068 282.694 440.195C282.547 379.323 282.4 318.451 282.254 257.578C275.211 267.669 268.169 277.76 261.127 287.852C247.042 308.034 240 384.857 240 518.32C240 651.784 240.587 719.98 241.761 722.91C242.934 725.84 244.842 728.932 247.482 732.188C250.123 735.443 252.471 737.559 254.525 738.535C256.579 739.512 258.926 740 261.567 740C264.208 740 266.408 739.512 268.169 738.535C269.93 737.559 272.424 734.954 275.651 730.723C278.879 726.491 317.025 652.598 390.088 509.043C463.151 365.488 501.297 293.223 504.525 292.246C507.752 291.27 539.442 290.781 599.595 290.781C659.748 290.781 691.144 291.107 693.785 291.758C696.426 292.409 697.746 323.008 697.746 383.555C697.746 413.828 697.746 444.102 697.746 474.375C663.562 474.375 629.378 474.375 595.194 474.375C526.825 474.375 488.386 482.676 479.877 499.277C475.622 507.578 471.367 515.879 467.113 524.18C504.231 524.342 541.35 524.505 578.468 524.668C652.705 524.993 691.144 525.482 693.785 526.133C696.426 526.784 697.746 554.128 697.746 608.164C697.746 635.182 697.746 662.201 697.746 689.219C645.81 689.219 593.873 689.219 541.937 689.219C438.063 689.219 383.339 694.102 377.764 703.867C372.189 713.633 367.934 722.096 365 729.258C363.533 732.839 362.066 736.419 360.599 740C420.898 740 481.197 740 541.496 740C662.095 740 723.421 739.512 725.475 738.535C727.529 737.559 730.023 735.117 732.958 731.211C735.892 727.305 737.799 724.049 738.68 721.445C739.56 718.841 740 641.042 740 488.047C740 335.052 739.413 257.09 738.239 254.16C737.066 251.23 735.599 248.789 733.838 246.836C732.077 244.883 729.73 243.255 726.796 241.953C723.862 240.651 683.075 240 604.437 240C525.798 240 485.012 240.651 482.077 241.953Z" fill="#d2d2d2" fill-opacity="0.745495" fill-rule="nonzero" filter="url(#Filter_2)" stroke="none" vectornator:layerName="Courbe 6" vectornator:shadowAngle="1.5708" vectornator:shadowColor="#000000" vectornator:shadowOffset="10" vectornator:shadowOpacity="0.333" vectornator:shadowRadius="10"/>
</g>
<g id="Calque-3" vectornator:layerName="Calque 3"/>
<g id="Calque-1" vectornator:layerName="Calque 1"/>
</svg>
